<?xml version="1.0" encoding="UTF-8"?>
<svg width="120px" height="120px" viewBox="0 0 120 120" version="1.1" xmlns="http://www.w3.org/2000/svg" xmlns:xlink="http://www.w3.org/1999/xlink">
    <!-- Generator: Sketch 48.2 (47327) - http://www.bohemiancoding.com/sketch -->
    <title>Group 3 Copy</title>
    <desc>Created with Sketch.</desc>
    <defs></defs>
    <g id="Desktop-HD" stroke="none" stroke-width="1" fill="none" fill-rule="evenodd" transform="translate(-304.000000, -1686.000000)">
        <g id="ABS" transform="translate(1.000000, 1480.000000)">
            <g id="Group-7" transform="translate(240.000000, 116.000000)">
                <g id="Group-6" transform="translate(0.000000, 90.000000)">
                    <g id="1">
                        <g id="Group-3-Copy" transform="translate(63.000000, 0.000000)">
                            <circle id="Oval-2" fill="#4C9C6F" cx="60" cy="60" r="60"></circle>
                            <g id="风险保障计划" transform="translate(35.000000, 33.000000)" fill="#FFFFFF" fill-rule="nonzero">
                                <path d="M26.8001033,5.3553719 L26.8001033,1.48760328 C26.8001033,0.595041282 26.2050619,0 25.3125,0 C24.4199381,0 23.8248967,0.595041334 23.8248967,1.48760328 L23.8248967,5.3553719 C10.5852273,6.09917354 0.0232438307,15.9173554 0.0232437784,28.1157025 L0.0232437784,28.8595041 C0.0232437784,30.0495868 1.51084706,30.4958678 2.25464875,29.4545455 C3.74225204,27.2231405 6.41993799,25.5867768 9.2463843,25.5867768 C12.2215909,25.5867768 14.7505165,27.0743801 16.2381198,29.3057851 C16.8331612,30.0495868 17.8744835,30.0495868 18.4695248,29.3057851 C19.9571281,27.0743802 22.634814,25.5867769 25.4612603,25.5867768 C28.2877066,25.5867768 30.8166322,26.9256198 32.3042355,29.1570248 C32.8992769,29.9008264 33.9405992,29.9008264 34.5356405,29.1570248 C36.0232438,27.0743802 38.5521694,25.5867768 41.3786157,25.5867768 C44.3538223,25.5867768 46.8827479,27.0743801 48.3703512,29.4545455 C48.9653926,30.3471075 50.4529959,30.0495868 50.6017562,28.8595041 L50.6017562,28.1157025 C50.6017562,15.9173554 40.0397727,6.09917354 26.8001033,5.3553719 Z" id="Shape"></path>
                                <path d="M25.3125,29.1570248 C24.419938,29.1570248 23.8248967,29.7520661 23.8248967,30.6446281 L23.8248967,45.5206612 C23.8248967,48.3471074 21.5934917,50.5785124 18.9158058,50.5785124 C16.2381198,50.5785124 14.0067149,48.3471074 14.0067149,45.5206612 C14.0067149,44.6280992 13.4116735,44.0330579 12.5191116,44.0330579 C11.6265496,44.0330579 11.0315083,44.6280992 11.0315082,45.5206612 C11.0315082,49.9834711 14.6017562,53.553719 18.9158058,53.553719 C23.081095,53.553719 26.5025827,50.1322314 26.8001033,45.9669421 C26.8001033,45.8181818 26.9488636,45.6694215 26.9488636,45.5206612 L26.9488636,30.6446281 C26.8001033,29.9008265 26.205062,29.1570248 25.3125,29.1570248 Z" id="Shape"></path>
                            </g>
                        </g>
                    </g>
                </g>
            </g>
        </g>
    </g>
</svg>