<?xml version="1.0" encoding="UTF-8"?>
<svg width="120px" height="120px" viewBox="0 0 120 120" version="1.1" xmlns="http://www.w3.org/2000/svg" xmlns:xlink="http://www.w3.org/1999/xlink">
    <!-- Generator: Sketch 48.2 (47327) - http://www.bohemiancoding.com/sketch -->
    <title>Group 3</title>
    <desc>Created with Sketch.</desc>
    <defs></defs>
    <g id="Desktop-HD" stroke="none" stroke-width="1" fill="none" fill-rule="evenodd" transform="translate(-304.000000, -1086.000000)">
        <g id="亮点" transform="translate(1.000000, 880.000000)">
            <g id="Group-7" transform="translate(240.000000, 116.000000)">
                <g id="Group-6" transform="translate(0.000000, 90.000000)">
                    <g id="1">
                        <g id="Group-3" transform="translate(63.000000, 0.000000)">
                            <circle id="Oval-2" fill="#F9F9F9" cx="60" cy="60" r="60"></circle>
                            <g id="Group" transform="translate(28.000000, 31.000000)">
                                <path d="M7.11803399,10 L56.881966,10 C57.5671711,10 58.193567,10.3871339 58.5,11 L58.5,11 C58.6706654,11.3413307 58.5323138,11.7563856 58.190983,11.927051 C58.0950363,11.9750244 57.9892377,12 57.881966,12 L6.11803399,12 C5.73641461,12 5.42705098,11.6906364 5.42705098,11.309017 C5.42705098,11.2017453 5.45202663,11.0959467 5.5,11 L5.5,11 C5.80643303,10.3871339 6.4328289,10 7.11803399,10 Z" id="Rectangle-4" fill="#444954"></path>
                                <path d="M22.236068,53 L42.763932,53 C43.5214761,53 44.2140024,53.4280048 44.5527864,54.1055728 L47,59 L18,59 L20.4472136,54.1055728 C20.7859976,53.4280048 21.4785239,53 22.236068,53 Z" id="Rectangle-4-Copy-2" fill="#444954"></path>
                                <polygon id="Rectangle-4-Copy" fill="#444954" transform="translate(33.000000, 30.000000) rotate(90.000000) translate(-33.000000, -30.000000) " points="4 29 41.1636672 27.0777414 43.0908838 27.9780577 62 26 62 34 43.1883302 32.0269826 41.1972049 32.9239934 4 31"></polygon>
                                <circle id="Oval-4" fill="#444954" cx="33" cy="2" r="2"></circle>
                                <circle id="Oval-4-Copy" fill="#444954" cx="33" cy="11" r="3"></circle>
                                <path d="" id="Path-2" stroke="#979797"></path>
                                <g id="Group-2" transform="translate(0.000000, 11.000000)">
                                    <path d="M0.5,15.5 C0.5,19.918278 5.20101013,23.5 11,23.5 C16.7989899,23.5 21.5,19.918278 21.5,15.5" id="Oval-3" fill="#444954"></path>
                                    <path d="M11,0 L1,16" id="Path-3" stroke="#444954"></path>
                                    <path d="M21,0 L11,16" id="Path-3-Copy" stroke="#444954" transform="translate(16.000000, 8.000000) scale(-1, 1) translate(-16.000000, -8.000000) "></path>
                                </g>
                                <g id="Group-2-Copy" transform="translate(42.000000, 11.000000)">
                                    <path d="M0.5,15.5 C0.5,19.918278 5.20101013,23.5 11,23.5 C16.7989899,23.5 21.5,19.918278 21.5,15.5" id="Oval-3" fill="#444954"></path>
                                    <path d="M11,0 L1,16" id="Path-3" stroke="#444954"></path>
                                    <path d="M21,0 L11,16" id="Path-3-Copy" stroke="#444954" transform="translate(16.000000, 8.000000) scale(-1, 1) translate(-16.000000, -8.000000) "></path>
                                </g>
                            </g>
                        </g>
                    </g>
                </g>
            </g>
        </g>
    </g>
</svg>