<?xml version="1.0" encoding="UTF-8"?>
<svg width="120px" height="120px" viewBox="0 0 120 120" version="1.1" xmlns="http://www.w3.org/2000/svg" xmlns:xlink="http://www.w3.org/1999/xlink">
    <!-- Generator: Sketch 48.2 (47327) - http://www.bohemiancoding.com/sketch -->
    <title>Intrinsic value Copy</title>
    <desc>Created with Sketch.</desc>
    <defs></defs>
    <g id="Desktop-HD" stroke="none" stroke-width="1" fill="none" fill-rule="evenodd" transform="translate(-661.000000, -1686.000000)">
        <g id="ABS" transform="translate(1.000000, 1480.000000)">
            <g id="Group-7" transform="translate(240.000000, 116.000000)">
                <g id="Group-6" transform="translate(0.000000, 90.000000)">
                    <g id="1-copy" transform="translate(360.000000, 0.000000)">
                        <g id="Intrinsic-value-Copy" transform="translate(60.000000, 0.000000)">
                            <circle id="Oval-2" fill="#4C9C6F" cx="60" cy="60" r="60"></circle>
                            <g id="收益" transform="translate(40.000000, 33.000000)" fill="#FFFFFF" fill-rule="nonzero">
                                <path d="M20.2316602,23.3783784 C31.4131274,23.3783784 40.4710425,18.1428571 40.4710425,11.6872587 C40.4710425,5.23166023 31.4092664,0 20.2316602,0 C9.05405405,0 2.84217094e-14,5.22779923 2.84217094e-14,11.6872587 C2.84217094e-14,18.1389961 9.05405405,23.3783784 20.2316602,23.3783784 Z M20.2393822,3.18918919 C29.4555985,3.18918919 37.953668,7.50579151 37.953668,11.1583012 C37.953668,14.8108108 29.4555985,19.2123552 20.2393822,19.2123552 C11.019305,19.2123552 2.52895753,14.8069498 2.52895753,11.1583012 C2.52895753,7.5019305 11.019305,3.18918919 20.2393822,3.18918919 Z M20.2316602,28.2432432 C10.5868726,28.2432432 2.53281853,23.1583012 0.505791506,17.6138996 C0.177437952,18.4317419 0.00585744323,19.304052 0,20.1853282 C0,26.6409266 9.05791506,31.8725869 20.2316602,31.8725869 C31.4131274,31.8725869 40.4710425,26.6409266 40.4710425,20.1853282 C40.4633687,19.3042359 40.2918539,18.4322595 39.965251,17.6138996 C37.9343629,23.1583012 29.8841699,28.2432432 20.2316602,28.2432432 Z M20.2316602,36.7490347 C11.027027,36.7490347 3.27027027,31.030888 0.822393822,25.4092664 C0.291402508,26.4209516 0.00946488575,27.5447312 2.84217094e-14,28.6872587 C2.84217094e-14,35.1389961 9.05791506,40.3706564 20.2316602,40.3706564 C31.4131274,40.3706564 40.4710425,35.1389961 40.4710425,28.6872587 C40.4710425,27.5444015 40.1737452,26.4517375 39.6486486,25.4092664 C37.2007722,31.030888 29.4401544,36.7490347 20.2316602,36.7490347 Z M20.2316602,43.5559846 C10.5868726,43.5559846 2.53281853,38.4749035 0.505791506,32.9305019 C0.178210292,33.7458785 0.00664066818,34.6155138 8.52651283e-14,35.4942085 C8.52651283e-14,41.953668 9.05791506,47.1853282 20.2316602,47.1853282 C31.4131274,47.1853282 40.4710425,41.953668 40.4710425,35.4942085 C40.4710425,34.6138996 40.2857143,33.7606178 39.965251,32.9305019 C37.9343629,38.4749035 29.8841699,43.5559846 20.2316602,43.5559846 Z M20.2316602,50.3745174 C10.5868726,50.3745174 2.53281853,45.2895753 0.505791506,39.7451737 C0.178210292,40.5605503 0.00664066818,41.4301857 8.52651283e-14,42.3088803 C8.52651283e-14,48.7722008 9.05791506,54 20.2316602,54 C31.4131274,54 40.4710425,48.7722008 40.4710425,42.3088803 C40.4710425,41.4285714 40.2857143,40.5752896 39.965251,39.7451737 C37.9343629,45.2857143 29.8841699,50.3745174 20.2316602,50.3745174 Z" id="Shape"></path>
                            </g>
                        </g>
                    </g>
                </g>
            </g>
        </g>
    </g>
</svg>