<?xml version="1.0" encoding="UTF-8"?>
<svg width="120px" height="120px" viewBox="0 0 120 120" version="1.1" xmlns="http://www.w3.org/2000/svg" xmlns:xlink="http://www.w3.org/1999/xlink">
    <!-- Generator: Sketch 48.2 (47327) - http://www.bohemiancoding.com/sketch -->
    <title>Intrinsic value</title>
    <desc>Created with Sketch.</desc>
    <defs></defs>
    <g id="Desktop-HD" stroke="none" stroke-width="1" fill="none" fill-rule="evenodd" transform="translate(-661.000000, -1086.000000)">
        <g id="亮点" transform="translate(1.000000, 880.000000)">
            <g id="Group-7" transform="translate(240.000000, 116.000000)">
                <g id="Group-6" transform="translate(0.000000, 90.000000)">
                    <g id="1-copy" transform="translate(360.000000, 0.000000)">
                        <g id="Intrinsic-value" transform="translate(60.000000, 0.000000)">
                            <circle id="Oval-2" fill="#F9F9F9" cx="60" cy="60" r="60"></circle>
                            <g id="diamond-钻石" transform="translate(30.000000, 36.000000)" fill="#444954" fill-rule="nonzero">
                                <path d="M59.868,16.6146563 L59.73,16.7466563 L30.804,55.3206563 L30.534,55.5906563 L30.402,55.5906563 C30.312,55.6806563 30.18,55.7226563 30,55.7226563 C29.82,55.7226563 29.688,55.6806563 29.598,55.5906563 L29.466,55.5906563 L29.196,55.3206563 L0.27,16.7466563 C0.18,16.7466563 0.138,16.7046563 0.138,16.6146563 L0.138,16.4826563 C0.042,16.3926563 0,16.3026563 0,16.2126563 L0,16.0806563 L0,15.8106563 L0.132,15.6786563 C0.132,15.5946563 0.174,15.4986563 0.264,15.4086563 L0.264,15.2766563 L15.264,0.27665625 C15.444,0.19265625 15.576,0.14465625 15.666,0.14465625 C15.756,0.06065625 15.888,0.01265625 16.068,0.01265625 L43.926,0.01265625 C44.106,0.01265625 44.238,0.06065625 44.328,0.14465625 C44.418,0.14465625 44.508,0.19265625 44.598,0.27665625 L44.73,0.27665625 L59.73,15.2766563 C59.82,15.4566563 59.862,15.5886563 59.862,15.6786563 L60,15.8106563 L60,16.0806563 L60,16.2126563 L59.868,16.4826563 L59.868,16.6146563 Z M3.216,17.1486563 L26.52,48.2226563 L15.27,17.1486563 L3.216,17.1486563 Z M15,3.62465625 L3.618,15.0066563 L15,15.0066563 L15,3.62465625 Z M27.588,2.14865625 L17.142,2.14865625 L17.142,13.3986563 L27.588,2.14865625 Z M17.544,17.1486563 L30,51.4386563 L42.456,17.1546563 L17.544,17.1546563 L17.544,17.1486563 Z M41.52,15.0066563 L30,2.68865625 L18.48,15.0066563 L41.52,15.0066563 Z M42.858,2.14865625 L32.412,2.14865625 L42.858,13.3986563 L42.858,2.14865625 Z M33.48,48.2226563 L56.784,17.1486563 L44.73,17.1486563 L33.48,48.2226563 Z M56.382,15.0066563 L45,3.62465625 L45,15.0066563 L56.382,15.0066563 Z" id="Shape"></path>
                            </g>
                        </g>
                    </g>
                </g>
            </g>
        </g>
    </g>
</svg>