<?xml version="1.0" encoding="UTF-8"?>
<svg width="107px" height="24px" viewBox="0 0 107 24" version="1.1" xmlns="http://www.w3.org/2000/svg" xmlns:xlink="http://www.w3.org/1999/xlink">
    <!-- Generator: Sketch 48.2 (47327) - http://www.bohemiancoding.com/sketch -->
    <title>LOGO</title>
    <desc>Created with Sketch.</desc>
    <defs></defs>
    <g id="Desktop-HD" stroke="none" stroke-width="1" fill="none" fill-rule="evenodd" transform="translate(-120.000000, -28.000000)">
        <g id="导航">
            <g id="LOGO" transform="translate(120.000000, 28.000000)">
                <g id="TOL-LOGO2">
                    <path d="M16.3275,16.0425 C13.9045401,14.8454714 11.2447612,14.2048695 8.5425,14.1675 C5.83770016,14.2037545 3.17523775,14.8443855 0.75,16.0425 C0.68757659,14.4650467 1.6335664,13.0219604 3.105,12.45 C4.82481873,11.7555917 6.67504609,11.4433818 8.5275,11.535 C10.3872657,11.4434532 12.2448076,11.7556022 13.9725,12.45 C15.4427556,13.0191931 16.3889709,14.45961 16.3275,16.035 L16.3275,16.0425 Z" id="Shape" fill="#FFFFFF" fill-rule="nonzero"></path>
                    <path d="M7.035,14.1675 L10.035,14.1675 L10.035,24 C8.37814575,24 7.035,22.6568542 7.035,21 L7.035,14.1675 Z" id="Shape" fill="#FFFFFF" fill-rule="nonzero"></path>
                    <circle id="Oval" cx="8.325" cy="5.8125" r="2.1"></circle>
                    <path d="M15.96,10.005 L10.995,1.41 C10.4910099,0.53840748 9.56056655,0.00162970977 8.55375,0.00162970977 C7.54693345,0.00162970977 6.61649013,0.53840748 6.1125,1.41 L1.1175,10.065 C0.969803342,10.3197523 0.99600096,10.6394671 1.18319814,10.866778 C1.37039532,11.0940889 1.67915389,11.1811065 1.9575,11.085 C4.1348434,10.3466325 6.40950025,9.93466683 8.7075,9.8625 C10.8878995,9.91081035 13.0469919,10.3031425 15.105,11.025 C15.3853125,11.1308891 15.7019327,11.0480178 15.8944248,10.8183781 C16.0869168,10.5887384 16.1132176,10.2625111 15.96,10.005 Z M8.5575,7.755 C7.75571941,7.7671733 7.02636455,7.29275473 6.71246681,6.55487363 C6.39856907,5.81699253 6.56260821,4.96252039 7.12743306,4.39333395 C7.69225791,3.82414752 8.54544295,3.65354047 9.28571679,3.961753 C10.0259906,4.26996553 10.5060055,4.99564949 10.5,5.7975 C10.5000703,6.87815502 9.63058472,7.75767314 8.55,7.77 L8.5575,7.755 Z" id="Shape" fill="#FFFFFF" fill-rule="nonzero"></path>
                </g>
                <g id="TOL-LOGO1" transform="translate(25.000000, 7.000000)" fill="#FFFFFF" fill-rule="nonzero">
                    <path d="M7.36,2.56 L5.48,2.56 L5.48,8.76 C5.50210816,9.04721622 5.41655794,9.33238361 5.24,9.56 C5.08264668,9.72081206 4.86485038,9.80793058 4.64,9.8 C4.3950333,9.80965974 4.15916172,9.70646592 4,9.52 C3.81984164,9.2942537 3.73385658,9.00763683 3.76,8.72 L3.76,2.56 L1.88,2.56 C1.67294661,2.63320443 1.44705339,2.63320443 1.24,2.56 C1.02776428,2.40426287 0.932537654,2.1344541 1,1.88 C0.980319327,1.6647848 1.07058164,1.45417275 1.24,1.32 C1.40412433,1.13484362 1.63340029,1.02020564 1.88,1 L7.36,1 C7.57907461,0.91703337 7.82092539,0.91703337 8.04,1 C8.17787335,1.13681434 8.25065927,1.32605773 8.24,1.52 C8.24634468,1.72145474 8.15741845,1.91412824 8,2.04 C7.87576894,2.30079626 7.64070434,2.49178624 7.36,2.56 Z" id="Shape"></path>
                    <path d="M11.6,6.04 L11,6.04 L11,8.76 C11.0261434,9.04763683 10.9401584,9.3342537 10.76,9.56 C10.5933007,9.73169656 10.3584917,9.81974992 10.12,9.8 C9.8750333,9.80965974 9.63916172,9.70646592 9.48,9.52 C9.30678422,9.29067584 9.22162214,9.00680225 9.24,8.72 L9.24,2.2 C9.22493063,1.90695009 9.32547144,1.61969063 9.52,1.4 C9.7195449,1.16135254 10.0093551,1.01644745 10.32,1 L14.32,1 C14.5243491,1.10666005 14.71283,1.24128928 14.88,1.4 C15.1499205,1.50979587 15.3948344,1.6730718 15.6,1.88 C15.7934298,2.08809251 15.9430598,2.3329416 16.04,2.6 C16.0933333,2.89090909 16.0933333,3.18909091 16.04,3.48 C16.1178377,4.01401916 15.9890898,4.55762158 15.68,5 C15.2266877,5.42619644 14.6549232,5.70510596 14.04,5.8 C14.3744535,5.98481907 14.6726123,6.22876722 14.92,6.52 C15.2015163,6.83094303 15.4557854,7.16550767 15.68,7.52 C15.8763646,7.82697804 16.0501558,8.14782341 16.2,8.48 C16.2314431,8.67876416 16.2314431,8.88123584 16.2,9.08 C16.2289689,9.18469979 16.2289689,9.29530021 16.2,9.4 C16.1330481,9.51643535 16.0364354,9.61304807 15.92,9.68 L15.48,9.68 C15.3234058,9.72668737 15.1565942,9.72668737 15,9.68 C14.857776,9.58449788 14.7355021,9.46222399 14.64,9.32 L14.24,8.72 L13.56,7.56 C13.4018867,7.22417603 13.2144957,6.90293425 13,6.6 C12.8363509,6.40930264 12.6310683,6.2587621 12.4,6.16 C12.1440173,6.06699839 11.8720035,6.02619631 11.6,6.04 Z M12.6,2.44 L11,2.44 L11,4.8 L12.56,4.8 C12.9054018,4.84188065 13.2545982,4.84188065 13.6,4.8 C13.8605049,4.71510123 14.0855558,4.54631304 14.24,4.32 C14.3935645,4.113066 14.4648357,3.85648962 14.44,3.6 C14.5046617,3.39156643 14.5046617,3.16843357 14.44,2.96 C14.3123364,2.77597275 14.1306166,2.63618828 13.92,2.56 C13.4784711,2.43361692 13.0168376,2.39288456 12.56,2.44 L12.6,2.44 Z" id="Shape"></path>
                    <path d="M23.44,2.48 L19.44,2.48 L19.44,4.56 L23.04,4.56 C23.2331801,4.48613575 23.4468199,4.48613575 23.64,4.56 C23.7067879,4.71303028 23.7067879,4.88696972 23.64,5.04 C23.7022722,5.1939409 23.7022722,5.3660591 23.64,5.52 C23.4468199,5.59386425 23.2331801,5.59386425 23.04,5.52 L19.44,5.52 L19.44,7.96 L23.44,7.96 C23.6338247,7.88971295 23.8461753,7.88971295 24.04,7.96 C24.2612135,8.00545793 24.4420938,8.16413811 24.5159671,8.37754985 C24.5898404,8.59096159 24.5457698,8.8275094 24.4,9 C24.4042665,9.18109384 24.3315916,9.35551369 24.2,9.48 C24.0061753,9.55028705 23.7938247,9.55028705 23.6,9.48 L18.88,9.48 C18.5923632,9.50614342 18.3057463,9.42015836 18.08,9.24 C17.8998416,9.0142537 17.8138566,8.72763683 17.84,8.44 L17.84,2.2 C17.7978711,2.00221855 17.7978711,1.79778145 17.84,1.6 C17.9270609,1.42150626 18.087801,1.28999167 18.28,1.24 C18.4777814,1.19787114 18.6822186,1.19787114 18.88,1.24 L23.44,1.24 C23.6338247,1.16971295 23.8461753,1.16971295 24.04,1.24 C24.2094184,1.37417275 24.2996807,1.5847848 24.28,1.8 C24.2842665,1.98109384 24.2115916,2.15551369 24.08,2.28 C23.9014201,2.42851454 23.6713676,2.50040596 23.44,2.48 Z" id="Shape"></path>
                    <path d="M31.4,2.48 L27.4,2.48 L27.4,4.56 L31,4.56 C31.1931801,4.48613575 31.4068199,4.48613575 31.6,4.56 C31.6667879,4.71303028 31.6667879,4.88696972 31.6,5.04 C31.6622722,5.1939409 31.6622722,5.3660591 31.6,5.52 C31.4068199,5.59386425 31.1931801,5.59386425 31,5.52 L27.4,5.52 L27.4,7.96 L31.4,7.96 C31.5938247,7.88971295 31.8061753,7.88971295 32,7.96 C32.2212135,8.00545793 32.4020938,8.16413811 32.4759671,8.37754985 C32.5498404,8.59096159 32.5057698,8.8275094 32.36,9 C32.3642665,9.18109384 32.2915916,9.35551369 32.16,9.48 C31.9661753,9.55028705 31.7538247,9.55028705 31.56,9.48 L26.84,9.48 C26.5523632,9.50614342 26.2657463,9.42015836 26.04,9.24 C25.8598416,9.0142537 25.7738566,8.72763683 25.8,8.44 L25.8,2.2 C25.7578711,2.00221855 25.7578711,1.79778145 25.8,1.6 C25.8870609,1.42150626 26.047801,1.28999167 26.24,1.24 C26.4377814,1.19787114 26.6422186,1.19787114 26.84,1.24 L31.4,1.24 C31.5938247,1.16971295 31.8061753,1.16971295 32,1.24 C32.1546027,1.3824841 32.2293633,1.59181379 32.2,1.8 C32.2042665,1.98109384 32.1315916,2.15551369 32,2.28 C31.8316949,2.4187164 31.6178739,2.48999007 31.4,2.48 Z" id="Shape"></path>
                    <path d="M40.44,1 C41.2322806,0.972194319 42.0181228,1.15142148 42.72,1.52 C43.3446551,1.86682931 43.8474175,2.39752295 44.16,3.04 C44.4963818,3.76609775 44.6606446,4.56003472 44.64,5.36 C44.6434203,5.97110499 44.5488885,6.57880971 44.36,7.16 C44.191133,7.67613394 43.9189368,8.15247735 43.56,8.56 C43.1969288,8.96446349 42.745127,9.27935563 42.24,9.48 C41.6663131,9.7019712 41.0550404,9.8106419 40.44,9.8 C39.8247974,9.81270398 39.2131285,9.70396283 38.64,9.48 C38.135557,9.27808565 37.684026,8.96338219 37.32,8.56 C36.9610632,8.15247735 36.688867,7.67613394 36.52,7.16 C36.3311115,6.57880971 36.2365797,5.97110499 36.24,5.36 C36.2630915,4.75761155 36.3847016,4.16307339 36.6,3.6 C36.768867,3.08386606 37.0410632,2.60752265 37.4,2.2 C37.7682079,1.81111411 38.21941,1.51031273 38.72,1.32 C39.2683826,1.10708112 39.8517349,0.998550449 40.44,1 Z M42.88,5.4 C42.9026431,4.83975082 42.8072466,4.28099972 42.6,3.76 C42.4217579,3.33037625 42.1141958,2.96689373 41.72,2.72 C41.3366555,2.47980056 40.8923518,2.35484014 40.44,2.36 C40.1234998,2.293069 39.7965002,2.293069 39.48,2.36 C39.1870946,2.48595041 38.9270646,2.67755143 38.72,2.92 C38.4835653,3.20156622 38.306669,3.52814401 38.2,3.88 C38.1323809,4.31740208 38.1323809,4.76259792 38.2,5.2 C38.1336245,5.63749676 38.1336245,6.08250324 38.2,6.52 C38.306669,6.87185599 38.4835653,7.19843378 38.72,7.48 C38.9289439,7.7204205 39.188475,7.91165389 39.48,8.04 C40.1607898,8.37604388 40.9592102,8.37604388 41.64,8.04 C42.0324692,7.79111949 42.3395127,7.42824982 42.52,7 C42.7630289,6.50024285 42.8992575,5.95532875 42.92,5.4 L42.88,5.4 Z" id="Shape"></path>
                    <path d="M51.24,2.48 L47.84,2.48 L47.84,4.64 L50.68,4.64 C50.8731801,4.56613575 51.0868199,4.56613575 51.28,4.64 C51.3467879,4.79303028 51.3467879,4.96696972 51.28,5.12 C51.3467879,5.27303028 51.3467879,5.44696972 51.28,5.6 C51.0861753,5.67028705 50.8738247,5.67028705 50.68,5.6 L47.84,5.6 L47.84,8.4 C47.8661434,8.68763683 47.7801584,8.9742537 47.6,9.2 C47.2568606,9.54066693 46.7031394,9.54066693 46.36,9.2 C46.1798416,8.9742537 46.0938566,8.68763683 46.12,8.4 L46.12,2.2 C46.0778711,2.00221855 46.0778711,1.79778145 46.12,1.6 C46.1888557,1.43791047 46.3179105,1.30885573 46.48,1.24 C46.6777814,1.19787114 46.8822186,1.19787114 47.08,1.24 L51.08,1.24 C51.2738247,1.16971295 51.4861753,1.16971295 51.68,1.24 C51.8115916,1.36448631 51.8842665,1.53890616 51.88,1.72 C51.8842665,1.90109384 51.8115916,2.07551369 51.68,2.2 C51.5649952,2.33564899 51.4115899,2.43327056 51.24,2.48 Z" id="Shape"></path>
                    <path d="M58,2.04 L58,8.24 L61.52,8.24 C61.7508967,8.2237832 61.9794218,8.2951973 62.16,8.44 C62.3126511,8.5695493 62.4004532,8.75978716 62.4,8.96 C62.4063447,9.16145474 62.3174185,9.35412824 62.16,9.48 C61.9529466,9.55320443 61.7270534,9.55320443 61.52,9.48 L57.52,9.48 C57.2323632,9.50614342 56.9457463,9.42015836 56.72,9.24 C56.5398416,9.0142537 56.4538566,8.72763683 56.48,8.44 L56.48,2.04 C56.4578918,1.75278378 56.5434421,1.46761639 56.72,1.24 C56.793369,1.13928586 56.8892496,1.05710247 57,1 C57.2377087,0.985662973 57.4703315,1.07289652 57.64,1.24 C57.8637893,1.44662118 57.9937737,1.73547549 58,2.04 Z" id="Shape"></path>
                    <path d="M63.56,8.76 L63.56,2.04 C63.5338566,1.75236317 63.6198416,1.4657463 63.8,1.24 C63.9666993,1.06830344 64.2015083,0.98025008 64.44,1 C64.6501237,1.00709975 64.8499459,1.09273781 65,1.24 C65.1801584,1.4657463 65.2661434,1.75236317 65.24,2.04 L65.24,8.76 C65.2661434,9.04763683 65.1801584,9.3342537 65,9.56 C64.8408383,9.74646592 64.6049667,9.84965974 64.36,9.84 C64.128949,9.83769474 63.9101791,9.73560213 63.76,9.56 C63.5940177,9.32847318 63.5224989,9.04239768 63.56,8.76 Z" id="Shape"></path>
                    <path d="M72.32,2.48 L69,2.48 L69,4.64 L71.84,4.64 C72.0331801,4.56613575 72.2468199,4.56613575 72.44,4.64 C72.5067879,4.79303028 72.5067879,4.96696972 72.44,5.12 C72.5067879,5.27303028 72.5067879,5.44696972 72.44,5.6 C72.2461753,5.67028705 72.0338247,5.67028705 71.84,5.6 L69,5.6 L69,8.4 C69.0261434,8.68763683 68.9401584,8.9742537 68.76,9.2 C68.4168606,9.54066693 67.8631394,9.54066693 67.52,9.2 C67.3398416,8.9742537 67.2538566,8.68763683 67.28,8.4 L67.28,2.2 C67.2378711,2.00221855 67.2378711,1.79778145 67.28,1.6 C67.3488557,1.43791047 67.4779105,1.30885573 67.64,1.24 C67.8377814,1.19787114 68.0422186,1.19787114 68.24,1.24 L72.24,1.24 C72.4338247,1.16971295 72.6461753,1.16971295 72.84,1.24 C72.9800985,1.39018068 73.0396109,1.59847378 73,1.8 C73.0622722,1.9539409 73.0622722,2.1260591 73,2.28 C72.8113903,2.43904018 72.5646808,2.5116018 72.32,2.48 Z" id="Shape"></path>
                    <path d="M80.04,2.48 L76.04,2.48 L76.04,4.56 L79.64,4.56 C79.8331801,4.48613575 80.0468199,4.48613575 80.24,4.56 C80.3067879,4.71303028 80.3067879,4.88696972 80.24,5.04 C80.3022722,5.1939409 80.3022722,5.3660591 80.24,5.52 C80.0468199,5.59386425 79.8331801,5.59386425 79.64,5.52 L76.04,5.52 L76.04,7.96 L80.04,7.96 C80.2338247,7.88971295 80.4461753,7.88971295 80.64,7.96 C80.8612135,8.00545793 81.0420938,8.16413811 81.1159671,8.37754985 C81.1898404,8.59096159 81.1457698,8.8275094 81,9 C81.0042665,9.18109384 80.9315916,9.35551369 80.8,9.48 C80.6061753,9.55028705 80.3938247,9.55028705 80.2,9.48 L75.48,9.48 C75.1923632,9.50614342 74.9057463,9.42015836 74.68,9.24 C74.4998416,9.0142537 74.4138566,8.72763683 74.44,8.44 L74.44,2.2 C74.3978711,2.00221855 74.3978711,1.79778145 74.44,1.6 C74.5088557,1.43791047 74.6379105,1.30885573 74.8,1.24 C74.9977814,1.19787114 75.2022186,1.19787114 75.4,1.24 L79.96,1.24 C80.1538247,1.16971295 80.3661753,1.16971295 80.56,1.24 C80.8065731,1.32028891 80.9803281,1.54143157 81,1.8 C81.0042665,1.98109384 80.9315916,2.15551369 80.8,2.28 C80.5921567,2.46236478 80.3106856,2.53643613 80.04,2.48 Z" id="Shape"></path>
                </g>
            </g>
        </g>
    </g>
</svg>