<?xml version="1.0" encoding="UTF-8"?>
<svg width="126px" height="26px" viewBox="0 0 126 26" version="1.1" xmlns="http://www.w3.org/2000/svg" xmlns:xlink="http://www.w3.org/1999/xlink">
    <!-- Generator: Sketch 48.2 (47327) - http://www.bohemiancoding.com/sketch -->
    <title>LOGO_CyberBlock</title>
    <desc>Created with Sketch.</desc>
    <defs></defs>
    <g id="cyberblock" stroke="none" stroke-width="1" fill="none" fill-rule="evenodd" transform="translate(-120.000000, -28.000000)">
        <g id="导航" fill="#FFFFFF">
            <g id="LOGO_CyberBlock" transform="translate(120.000000, 28.000000)">
                <g id="LOGO">
                    <path d="M22.812444,16.9824399 L18.497455,23.3796741 C18.8058066,23.6544028 19,24.0545233 19,24.5 C19,25.3284271 18.3284271,26 17.5,26 C16.7111399,26 16.0645087,25.391046 16.0045399,24.6175717 L5.8847278,22.4665392 C5.71708392,22.7837957 5.38379057,23 5,23 C4.44771525,23 4,22.5522847 4,22 C4,21.6909139 4.14022796,21.4145799 4.36053497,21.2311467 L1.13688326,13.9907064 C1.09213145,13.996835 1.04643534,14 1,14 C0.44771525,14 0,13.5522847 0,13 C0,12.4477153 0.44771525,12 1,12 C1.03591378,12 1.07138538,12.0018932 1.10632044,12.0055853 L4.44990857,4.83523738 C4.17884856,4.65635531 4,4.34906382 4,4 C4,3.44771525 4.44771525,3 5,3 C5.37809921,3 5.70718778,3.20983955 5.87716075,3.5194137 L16.0177328,1.73135724 C16.0060579,1.65594705 16,1.57868098 16,1.5 C16,0.671572875 16.6715729,0 17.5,0 C18.3284271,0 19,0.671572875 19,1.5 C19,1.99297872 18.7621841,2.43041256 18.3950178,2.70383606 L22.8155286,9.01697982 C22.8753175,9.0058299 22.9369779,9 23,9 C23.5522847,9 24,9.44771525 24,10 C24,10.5522847 23.5522847,11 23,11 C22.4477153,11 22,10.5522847 22,10 C22,9.93950989 22.0053709,9.88027421 22.0156617,9.82274382 L11.3897831,6.37018657 L5.30004883,10.4469082 L5.30004883,15.651314 L11.0504966,19.6479793 L22.04196,16.2875517 C22.0146647,16.1964823 22,16.0999537 22,16 C22,15.4477153 22.4477153,15 23,15 C23.5522847,15 24,15.4477153 24,16 C24,16.5522847 23.5522847,17 23,17 C22.9358935,17 22.873196,16.9939677 22.812444,16.9824399 Z M22.3559765,16.7650349 C22.3415278,16.7528591 22.3274289,16.7402815 22.3136969,16.7273192 L11.5729512,20.0110947 L16.4668975,23.412476 C16.7358933,23.1568596 17.0996284,23 17.5,23 C17.7032329,23 17.8970258,23.0404178 18.073779,23.1136538 L22.3559766,16.7650348 Z M1.59949485,13.8004524 L4.80004883,20.9890143 L4.80004883,15.9127077 L1.67318664,13.7394818 C1.64962474,13.7609438 1.62503321,13.7812949 1.59949485,13.8004524 Z M17.9450132,2.93288631 C17.804408,2.97650613 17.6549477,3 17.5,3 C17.2210121,3 16.9598134,2.92383502 16.7360632,2.79116414 L11.9184955,6.01624451 L22.2269141,9.36565275 C22.2661698,9.31786728 22.3097693,9.27378587 22.357109,9.23401216 L17.9450132,2.93288631 Z M4.80004883,5.26745996 L1.57565124,12.1822029 C1.61275774,12.2083703 1.64800385,12.2369993 1.68115202,12.2678525 L4.80004883,10.1799331 L4.80004883,5.26745996 Z M16.049608,24.1159809 C16.0776557,24.009767 16.1170611,23.9081673 16.1664462,23.8125596 L10.9645041,20.1971157 L5.9621368,21.7264928 C5.98504707,21.8072428 5.99806584,21.8921521 5.9998006,21.9798284 L16.049608,24.1159809 Z M16.1787131,2.21068538 L5.99998536,4.00546971 C5.99982947,4.03457638 5.99843006,4.06338872 5.99583755,4.0918563 L11.3133875,5.81963302 L16.3418779,2.45335218 C16.2799756,2.3782404 16.2252386,2.2970028 16.1787131,2.21068538 Z M4.80004883,15.3038049 L4.80004883,10.7816291 L1.95072269,12.6890866 C1.98270586,12.7869484 2,12.8914546 2,13 C2,13.1123252 1.98148045,13.220325 1.94732819,13.3211124 L4.80004883,15.3038049 Z M10.4420494,19.8340002 L5.30004883,16.2602167 L5.30004883,21.0457956 C5.45153954,21.0933846 5.58749367,21.1760538 5.6983904,21.2842823 L10.4420494,19.8340002 Z M10.7846752,6.17357507 L5.82680276,4.56266468 C5.70155324,4.74635548 5.51668742,4.88614991 5.30004883,4.95420443 L5.30004883,9.84521228 L10.7846752,6.17357507 Z" id="Combined-Shape"></path>
                </g>
                <text id="Cyberblock" font-family="PingFangSC-Semibold, PingFang SC" font-size="16" font-weight="500" line-spacing="16">
                    <tspan x="40" y="22">Cyberblock</tspan>
                </text>
            </g>
        </g>
    </g>
</svg>