<?xml version="1.0" encoding="UTF-8"?>
<svg width="120px" height="120px" viewBox="0 0 120 120" version="1.1" xmlns="http://www.w3.org/2000/svg" xmlns:xlink="http://www.w3.org/1999/xlink">
    <!-- Generator: Sketch 48.2 (47327) - http://www.bohemiancoding.com/sketch -->
    <title>Visible information Copy</title>
    <desc>Created with Sketch.</desc>
    <defs></defs>
    <g id="Desktop-HD" stroke="none" stroke-width="1" fill="none" fill-rule="evenodd" transform="translate(-1021.000000, -1686.000000)">
        <g id="ABS" transform="translate(1.000000, 1480.000000)">
            <g id="Group-7" transform="translate(240.000000, 116.000000)">
                <g id="Group-6" transform="translate(0.000000, 90.000000)">
                    <g id="1-copy-2" transform="translate(720.000000, 0.000000)">
                        <g id="Visible-information-Copy" transform="translate(60.000000, 0.000000)">
                            <circle id="Oval-2" fill="#4C9C6F" cx="60" cy="60" r="60"></circle>
                            <g id="地域分布" transform="translate(33.000000, 33.000000)" fill="#FFFFFF" fill-rule="nonzero">
                                <path d="M27,54 C12.0888,54 0,41.9112 0,27 C0,12.0888 12.0888,0 27,0 C41.9112,0 54,12.0888 54,27 C54,41.9112 41.9112,54 27,54 Z M28.6524,3.8124 C28.8144,3.96720002 28.9116,4.15080002 28.9044,4.3632 C28.8612,5.8752 26.5752,7.85879998 25.5852,7.64279998 C24.5916,7.42679998 25.1964,5.2272 24.5052,4.7952 C23.8176,4.3632 20.97,5.184 19.4616,6.17399998 C17.9496,7.16759998 18.3816,7.98839998 18.9432,7.94519998 C19.5048,7.90199998 20.538,6.90839998 21.4884,6.69239998 C22.4352,6.47639998 22.9968,7.42679998 22.9968,8.76240002 C22.9968,10.1016 20.538,9.84240002 17.9496,10.53 C15.3648,11.2212 13.7232,16.2252 13.4676,16.8696 C13.2084,17.5176 11.8692,16.956 11.61,16.2252 C11.3544,15.4908 10.4472,16.4844 9.75600002,16.8696 C9.06839998,17.2584 9.02519998,18.9432 9.19799998,19.1124 C9.36720002,19.2852 10.3176,18.9828 10.4472,19.8036 C10.5768,20.6244 10.9224,22.5648 10.1448,22.7376 C9.36720002,22.9104 8.29079998,20.754 8.07479998,19.89 C7.8948,19.1736 7.20720002,16.1568 6.98399998,15.1668 C4.92840002,18.6336 3.7476,22.6764 3.7476,27 C3.7476,39.8412 14.1588,50.2524 27,50.2524 C35.6796,50.2524 43.2432,45.4968 47.2392,38.448 C46.2024,39.2652 44.892,39.978 43.3944,39.978 C40.6332,39.978 43.6824,33.3108 43.6824,33.3108 C43.6824,33.3108 45.594,25.6608 40.7628,25.92 C34.0308,26.28 34.0488,20.4336 34.2612,18.288 C34.5528,15.3108 35.838,14.3568 37.8144,13.4244 C40.8816,11.9844 45.2916,13.9896 45.2916,13.9896 C45.9216,14.2956 46.476,14.6736 46.98,15.1056 C43.1892,8.748 36.4536,4.35959998 28.6524,3.8124 Z M19.5732,46.8648 C18.7632,47.394 17.9064,45.8928 16.6392,44.6652 C15.6924,43.7472 14.6556,40.7844 14.7852,39.1428 C14.9148,37.5048 12.4992,34.272 11.3364,33.2784 C10.1736,32.2884 10.044,24.9372 10.7748,24.1776 C13.2768,21.5928 19.1484,26.7156 19.9188,27.4572 C21.1248,28.62 23.6592,27.9756 25.254,30.69 C26.8524,33.408 20.0052,39.5316 19.098,41.5152 C18.1944,43.4988 20.6928,46.1304 19.5732,46.8648 Z" id="Shape"></path>
                            </g>
                        </g>
                    </g>
                </g>
            </g>
        </g>
    </g>
</svg>