<?xml version="1.0" encoding="UTF-8"?>
<svg width="120px" height="120px" viewBox="0 0 120 120" version="1.1" xmlns="http://www.w3.org/2000/svg" xmlns:xlink="http://www.w3.org/1999/xlink">
    <!-- Generator: Sketch 48.2 (47327) - http://www.bohemiancoding.com/sketch -->
    <title>Visible information</title>
    <desc>Created with Sketch.</desc>
    <defs></defs>
    <g id="Desktop-HD" stroke="none" stroke-width="1" fill="none" fill-rule="evenodd" transform="translate(-1021.000000, -1086.000000)">
        <g id="亮点" transform="translate(1.000000, 880.000000)">
            <g id="Group-7" transform="translate(240.000000, 116.000000)">
                <g id="Group-6" transform="translate(0.000000, 90.000000)">
                    <g id="1-copy-2" transform="translate(720.000000, 0.000000)">
                        <g id="Visible-information" transform="translate(60.000000, 0.000000)">
                            <circle id="Oval-2" fill="#F9F9F9" cx="60" cy="60" r="60"></circle>
                            <g id="查看文件" transform="translate(35.000000, 35.000000)" fill="#444954" fill-rule="nonzero">
                                <path d="M49.6404541,49.6016512 C49.1847265,50.050774 48.4582043,50.050774 48.0090815,49.6016512 L42.0152735,43.6078431 C42.603096,43.1091847 43.1479876,42.5642931 43.646646,41.9764706 L49.6404541,47.9702786 C50.0796698,48.4194014 50.0796698,49.1525284 49.6404541,49.6016512 Z M32.2831785,44.9122807 C25.2887513,44.9122807 19.6185759,39.2421053 19.6185759,32.247678 C19.6185759,25.2565531 25.2920537,19.5830753 32.2831785,19.5830753 C39.2809082,19.5830753 44.9510836,25.2565531 44.9510836,32.247678 C44.9510836,39.2421053 39.2809082,44.9122807 32.2831785,44.9122807 Z M32.2831785,21.8848297 C26.5634675,21.8848297 21.9203302,26.5246646 21.9203302,32.247678 C21.9203302,37.9706914 26.5634675,42.6138287 32.2831785,42.6138287 C38.006192,42.6138287 42.6526316,37.9706914 42.6526316,32.247678 C42.6526316,26.5246646 38.006192,21.8848297 32.2831785,21.8848297 Z M24.225387,32.247678 C24.225387,31.8579979 24.2584107,31.4749226 24.3145511,31.098452 L33.4357069,31.098452 L33.4357069,33.396904 L24.3178535,33.396904 C24.2584107,33.0237358 24.225387,32.6406605 24.225387,32.247678 Z M32.2831785,24.1898865 C32.676161,24.1898865 33.055934,24.2262126 33.4390093,24.2790506 L33.4390093,26.4916409 L26.6460268,26.4916409 C28.1023736,25.0683179 30.0904025,24.1898865 32.2831785,24.1898865 Z M8.10319917,33.396904 L8.10319917,31.098452 L17.3729618,31.098452 C17.3465428,31.478225 17.3168215,31.8579979 17.3168215,32.247678 C17.3168215,32.6373581 17.3465428,33.0171311 17.3729618,33.4002064 L8.10319917,33.4002064 L8.10319917,33.396904 Z M18.4693498,26.4916409 L8.10319917,26.4916409 L8.10319917,24.1898865 L19.6846233,24.1898865 C19.2189886,24.9164087 18.8028896,25.6825593 18.4693498,26.4916409 Z M8.10319917,10.3727554 L19.6152735,10.3727554 L19.6152735,12.6778122 L8.10319917,12.6778122 L8.10319917,10.3727554 Z M19.6152735,19.5830753 L8.10319917,19.5830753 L8.10319917,17.2780186 L19.6152735,17.2780186 L19.6152735,19.5830753 Z M39.1851393,17.2780186 L29.9814241,17.2780186 C27.4352941,17.2780186 25.3713106,15.2140351 25.3713106,12.6745098 L25.3713106,2.31166151 L4.64891641,2.31166151 C3.38080495,2.31166151 2.34716202,3.34530444 2.34716202,4.61341589 L2.34716202,39.1529412 C2.34716202,40.4276574 3.38080495,41.4546956 4.64891641,41.4546956 L20.503612,41.4546956 C21.1640867,42.2968008 21.900516,43.0728586 22.7261094,43.7564499 L4.64891641,43.7564499 C2.10608875,43.7564499 0.0454076367,41.6924665 0.0454076367,39.1496388 L0.0454076367,4.61341589 C0.0454076367,2.07058824 2.10939112,0.00660474716 4.64891641,0.00660474716 C4.64891641,0.00660474716 13.4959752,0.00660474716 21.9170279,0.00660474716 C22.1250774,0.00660474716 22.3298246,0.00660474716 22.5378741,0.00660474716 C22.9407637,0.00660474716 23.3271414,0.00660474716 23.7234262,0.00660474716 L26.9465428,0.00660474716 L41.153354,15.3131063 L41.0840041,15.7192982 L41.4934985,16.1254902 L41.4934985,16.65387 L41.4934985,19.579773 L41.4934985,20.4648091 C40.7702786,19.9034056 40.004128,19.4047472 39.1851393,18.978741 L39.1851393,17.2780186 Z M27.6796698,4.22373581 L27.6796698,12.6745098 C27.6796698,13.9426213 28.7100103,14.9762642 29.9814241,14.9762642 L37.7585139,14.9762642 L27.6796698,4.22373581 Z" id="Shape"></path>
                            </g>
                        </g>
                    </g>
                </g>
            </g>
        </g>
    </g>
</svg>